{
  "accessors": [
    {
      "bufferView": 2,
      "componentType": 5126,
      "count": 17308,
      "max": [
        0.9326050281524658,
        0.8594939708709717,
        1.417842984199524
      ],
      "min": [
        -0.802291989326477,
        -0.9969710111618042,
        -0.9188179969787598
      ],
      "type": "VEC3"
    },
    {
      "bufferView": 2,
      "byteOffset": 207696,
      "componentType": 5126,
      "count": 17308,
      "max": [
        0.9999912977218628,
        0.9997548460960388,
        0.9995267987251282
      ],
      "min": [
        -0.9995890259742737,
        -0.9999741315841675,
        -0.9993821382522583
      ],
      "type": "VEC3"
    },
    {
      "bufferView": 1,
      "componentType": 5126,
      "count": 17308,
      "max": [
        0.9868000149726868,
        0.8525000214576721
      ],
      "min": [
        0.013199999928474426,
        0.26510000228881836
      ],
      "type": "VEC2"
    },
    {
      "bufferView": 0,
      "componentType": 5125,
      "count": 103146,
      "type": "SCALAR"
    }
  ],
  "asset": {
    "extras": {
      "author": "usd95 (https://sketchfab.com/usd95)",
      "license": "CC-BY-4.0 (http://creativecommons.org/licenses/by/4.0/)",
      "source": "https://sketchfab.com/3d-models/head-model-of-a-child-ba3741c384a24113b14fd69ed65ba142",
      "title": "Head model of a child"
    },
    "generator": "Sketchfab-12.67.0",
    "version": "2.0"
  },
  "bufferViews": [
    {
      "buffer": 0,
      "byteLength": 412584,
      "name": "floatBufferViews",
      "target": 34963
    },
    {
      "buffer": 0,
      "byteLength": 138464,
      "byteOffset": 412584,
      "byteStride": 8,
      "name": "floatBufferViews",
      "target": 34962
    },
    {
      "buffer": 0,
      "byteLength": 415392,
      "byteOffset": 551048,
      "byteStride": 12,
      "name": "floatBufferViews",
      "target": 34962
    }
  ],
  "buffers": [
    {
      "byteLength": 966440,
      "uri": "scene.bin"
    }
  ],
  "materials": [
    {
      "doubleSided": true,
      "name": "kt_facebuilder_material",
      "pbrMetallicRoughness": {
        "baseColorFactor": [
          0.43933674780751586,
          0.43933674780751586,
          0.43933674780751586,
          1.0
        ],
        "metallicFactor": 0.22667645574545964,
        "roughnessFactor": 0.5610859797287027
      }
    }
  ],
  "meshes": [
    {
      "name": "Object_0",
      "primitives": [
        {
          "attributes": {
            "NORMAL": 1,
            "POSITION": 0,
            "TEXCOORD_0": 2
          },
          "indices": 3,
          "material": 0,
          "mode": 4
        }
      ]
    }
  ],
  "nodes": [
    {
      "children": [
        1
      ],
      "matrix": [
        1.0,
        0.0,
        0.0,
        0.0,
        0.0,
        2.220446049250313e-16,
        -1.0,
        0.0,
        0.0,
        1.0,
        2.220446049250313e-16,
        0.0,
        0.0,
        0.0,
        0.0,
        1.0
      ],
      "name": "Sketchfab_model"
    },
    {
      "children": [
        2
      ],
      "name": "Head.obj.cleaner.materialmerger.gles"
    },
    {
      "mesh": 0,
      "name": "Object_2"
    }
  ],
  "scene": 0,
  "scenes": [
    {
      "name": "Sketchfab_Scene",
      "nodes": [
        0
      ]
    }
  ]
}
